<svg xmlns="http://www.w3.org/2000/svg" data-name=" 1" viewBox="0 0 128 128"><path d="M127.11,62.34,122,58.93V12a8,8,0,0,0-8-8H44a8,8,0,0,0-8,8V31H6.13A6.14,6.14,0,0,0,0,37.13V90.87A6.14,6.14,0,0,0,6.13,97H30v19a8,8,0,0,0,8,8h82a8,8,0,0,0,8-8V64A2,2,0,0,0,127.11,62.34ZM124,65.07v1.76L122,68V63.74ZM40,12a4,4,0,0,1,4-4h70a4,4,0,0,1,4,4V60h0V70.22L80.05,91.67,66,82.89V37.13A6.14,6.14,0,0,0,59.87,31H40ZM4,90.87V37.13A2.14,2.14,0,0,1,6.13,35H59.87A2.14,2.14,0,0,1,62,37.13V90.87A2.14,2.14,0,0,1,59.87,93H6.13A2.14,2.14,0,0,1,4,90.87ZM120,120H38a4,4,0,0,1-4-4V97H59.87A6.14,6.14,0,0,0,66,90.87V87.61L78.94,95.7a2,2,0,0,0,2,0l43-24.31V116A4,4,0,0,1,120,120Z"/><path d="M33,44.94a16.87,16.87,0,0,0-12.16,4.7c-3.49,3.47-5.41,8.57-5.41,14.36s1.92,10.89,5.41,14.36a16.64,16.64,0,0,0,12,4.7H33C43.51,83,50.56,75.34,50.56,64S43.51,45,33,44.94Zm0,34.12h-.1a12.72,12.72,0,0,1-9.22-3.54c-2.73-2.71-4.23-6.8-4.23-11.52s1.5-8.81,4.23-11.52a12.72,12.72,0,0,1,9.22-3.54H33c8.24.05,13.57,6,13.57,15.06S41.23,79,33,79.06Z"/></svg>