<svg id="SvgjsSvg1023" width="288" height="288" xmlns="http://www.w3.org/2000/svg" version="1.1" xmlns:xlink="http://www.w3.org/1999/xlink" xmlns:svgjs="http://svgjs.com/svgjs"><defs id="SvgjsDefs1024"></defs><g id="SvgjsG1025"><svg xmlns="http://www.w3.org/2000/svg" viewBox="0 0 64 64" width="288" height="288"><path fill="#ffffff" d="M12.71,29.71A1.052,1.052,0,0,0,13,29a.852.852,0,0,0-.08-.38,1.155,1.155,0,0,0-.21-.33,1.047,1.047,0,0,0-1.42,0,1.155,1.155,0,0,0-.21.33A.838.838,0,0,0,11,29a1,1,0,0,0,1.71.71Z" class="color231f20 svgShape"></path><path fill="#ffffff" d="M25 2H7A5.006 5.006 0 0 0 2 7V25a5.006 5.006 0 0 0 5 5H9a1 1 0 0 0 0-2H7a3 3 0 0 1-3-3V7A3 3 0 0 1 7 4H25a3 3 0 0 1 3 3V25a3 3 0 0 1-3 3H15a1 1 0 0 0 0 2H25a5.006 5.006 0 0 0 5-5V7A5.006 5.006 0 0 0 25 2zM57 2H39a5.006 5.006 0 0 0-5 5V25a5.006 5.006 0 0 0 5 5H57a5.006 5.006 0 0 0 5-5V7A5.006 5.006 0 0 0 57 2zm3 23a3 3 0 0 1-3 3H39a3 3 0 0 1-3-3V7a3 3 0 0 1 3-3H57a3 3 0 0 1 3 3zM25 34H7a5.006 5.006 0 0 0-5 5V57a5.006 5.006 0 0 0 5 5H25a5.006 5.006 0 0 0 5-5V39A5.006 5.006 0 0 0 25 34zm3 23a3 3 0 0 1-3 3H7a3 3 0 0 1-3-3V39a3 3 0 0 1 3-3H25a3 3 0 0 1 3 3zM58 45H51V38a3 3 0 0 0-6 0v7H38a3 3 0 0 0 0 6h7v7a3 3 0 0 0 6 0V51h7a3 3 0 0 0 0-6zm0 4H50a1 1 0 0 0-1 1v8a1 1 0 0 1-2 0V50a1 1 0 0 0-1-1H38a1 1 0 0 1 0-2h8a1 1 0 0 0 1-1V38a1 1 0 0 1 2 0v8a1 1 0 0 0 1 1h8a1 1 0 0 1 0 2z" class="color231f20 svgShape"></path></svg></g></svg>