<svg xmlns="http://www.w3.org/2000/svg" viewBox="0 0 512 512"><path fill="#231f20" d="M397.89,444.79H114.11a47,47,0,0,1-46.9-46.9V114.11a47,47,0,0,1,46.9-46.9H397.89a47,47,0,0,1,46.9,46.9V397.89A47,47,0,0,1,397.89,444.79ZM114.11,77.13a37,37,0,0,0-37,37V397.89a37,37,0,0,0,37,37H397.89a37,37,0,0,0,37-37V114.11a37,37,0,0,0-37-37Z"/><path fill="#914097" d="M161.61,146.27l-16.22,48.8V374h64.88v32.53h32.44L275.16,374h48.67l64.89-69.29V146.27Zm210.88,146.4-45.42,48.8H269.55L234.61,367V341.47H177.83V162.54H372.49V292.67Z"/><rect width="16.22" height="65.07" x="258.94" y="211.34" fill="#914097"/><rect width="16.22" height="65.07" x="307.61" y="211.34" fill="#914097"/><g data-name="28-twitch"><path fill="#231f20" d="M233.72,395.22H194.26V362.69H129.38V178L147,125H382.62V290.39l-67.7,72.3H266.17Zm-29.54-9.92H229.6l32.45-32.53h48.57l62.09-66.29V135H154.13L139.29,179.6V352.77h64.89Zm14.42-24.86V330.15H161.82V141.31H366.4v137l-48.22,51.8H260.11Zm-46.87-40.2h56.78v20.69l28.37-20.69h57l42.62-45.79V151.23H171.73Z"/><path fill="#231f20" d="M269.07 265.09H242.93v-75h26.14zm-16.23-9.92h6.31V200h-6.31zM317.73 265.09H291.59v-75h26.14zm-16.22-9.92h6.31V200h-6.31z"/></g></svg>