<svg id="SvgjsSvg1250" width="288" height="288" xmlns="http://www.w3.org/2000/svg" version="1.1" xmlns:xlink="http://www.w3.org/1999/xlink" xmlns:svgjs="http://svgjs.com/svgjs"><defs id="SvgjsDefs1251"></defs><g id="SvgjsG1252"><svg xmlns="http://www.w3.org/2000/svg" width="288" height="288" viewBox="0 0 24 24"><path d="M23 24h-4c-.6 0-1-.4-1-1s.4-1 1-1h4c.6 0 1 .4 1 1s-.4 1-1 1z" fill="#ffffff" class="color000 svgShape"></path><path d="M23 24c-.6 0-1-.4-1-1v-4c0-.6.4-1 1-1s1 .4 1 1v4c0 .6-.4 1-1 1zM5 2H1c-.6 0-1-.4-1-1s.4-1 1-1h4c.6 0 1 .4 1 1s-.4 1-1 1z" fill="#ffffff" class="color000 svgShape"></path><path d="M1 6c-.6 0-1-.4-1-1V1c0-.6.4-1 1-1s1 .4 1 1v4c0 .6-.4 1-1 1z" fill="#ffffff" class="color000 svgShape"></path><path d="M7.8 8.8c-.3 0-.5-.1-.7-.3L.5 1.9C.1 1.5.1.9.5.5s1-.4 1.4 0L8.4 7c.4.4.4 1 0 1.4-.1.3-.4.4-.6.4zm15 15c-.3 0-.5-.1-.7-.3L15.6 17c-.4-.4-.4-1 0-1.4s1-.4 1.4 0l6.5 6.5c.4.4.4 1 0 1.4-.2.2-.5.3-.7.3zM1 24c-.6 0-1-.4-1-1v-4c0-.6.4-1 1-1s1 .4 1 1v4c0 .6-.4 1-1 1z" fill="#ffffff" class="color000 svgShape"></path><path d="M5 24H1c-.6 0-1-.4-1-1s.4-1 1-1h4c.6 0 1 .4 1 1s-.4 1-1 1zM23 6c-.6 0-1-.4-1-1V1c0-.6.4-1 1-1s1 .4 1 1v4c0 .6-.4 1-1 1z" fill="#ffffff" class="color000 svgShape"></path><path d="M23 2h-4c-.6 0-1-.4-1-1s.4-1 1-1h4c.6 0 1 .4 1 1s-.4 1-1 1z" fill="#ffffff" class="color000 svgShape"></path><path d="M16.2 8.8c-.3 0-.5-.1-.7-.3-.4-.4-.4-1 0-1.4L22 .6c.4-.4 1-.4 1.4 0s.4 1 0 1.4l-6.5 6.5c-.1.2-.4.3-.7.3zm-15 15c-.3 0-.5-.1-.7-.3-.4-.4-.4-1 0-1.4L7 15.6c.4-.4 1-.4 1.4 0s.4 1 0 1.4l-6.5 6.5c-.2.2-.4.3-.7.3z" fill="#ffffff" class="color000 svgShape"></path></svg></g></svg>