<svg id="SvgjsSvg1131" width="288" height="288" xmlns="http://www.w3.org/2000/svg" version="1.1" xmlns:xlink="http://www.w3.org/1999/xlink" xmlns:svgjs="http://svgjs.com/svgjs"><defs id="SvgjsDefs1132"></defs><g id="SvgjsG1133"><svg xmlns="http://www.w3.org/2000/svg" viewBox="0 0 64 64" width="288" height="288"><path d="M24 34v-4H10.828l4.586-4.586-2.828-2.828L3.172 32l9.414 9.414 2.828-2.828L10.828 34zm27.414-11.414l-2.828 2.828L53.172 30H40v4h13.172l-4.586 4.586 2.828 2.828L60.828 32zM34 53.171V40h-4v13.171l-4.586-4.585-2.828 2.828L32 60.829l9.414-9.415-2.828-2.828zm-4-42.342V24h4V10.829l4.586 4.585 2.828-2.828L32 3.171l-9.414 9.415 2.828 2.828z" fill="#000000" class="color000 svgShape"></path></svg></g></svg>